<svg xmlns="http://www.w3.org/2000/svg" width="657.92" height="182.4"><g fill="#fff" fill-rule="evenodd"><path d="M3.2187 64.235c7.316-3.228 13.8106-7.38 17.772-12.015 7.672-8.973 21.6-28.943 39.0453-28.236 10.616.431 23.167 3.648 24.696 26.825 3.763 2.93 8.115 4.627 11.289 7.764 1.034-2.428 4.295-6.605 5.411-8.236-6.255-6.94-14.904-20.138-2.117-30.118 12.676-9.892 26.672-13.822 39.536-13.842 8.688-.013 26.713-4.394 31.732-5.218 3.714-.61 7.522 3.82 5.88 9.648-2.643 9.373-1.2 18.51-15.11 40.9-4.476 7.205-14.497 16.39-23.7 17.221-9.202.831-23.364-4.629-31.517-12.237-2.151 2.218-3.557 6.061-4.352 9.924 2.625 5.882 3.781 16.277 3.176 25.372-.649 9.753-4.049 23.524-5.852 33.524 5.973 4.318 10.165 9.244 16.2 12.361 6.268 3.236 16.139 6.152 21.404 7.059 6.252 1.074 4.228 9.86-3.528 7.529-4.321-1.297-13.759-3.451-19.757-6.352-5.892-2.852-13.403-9.855-16.23-11.06-.784 2.745-1.881 7.028-.234 9.883 1.793 3.108 6.97 6.356 10.99 8.764 4.383 2.625 10.559 5.314 15.312 6.99 7.11 2.506 3.622 8.8-2.229 7.808-5.576-.946-19.425-9.657-24.544-13.209-1.625 6.711 6.985 15.577 9.408 19.531 3.015 4.918-3.924 7.713-6.349 4.47-1.302-1.74-5.49-6.554-7.654-11.536-2.034-4.686-3.129-7.177-3.873-10.818-2.824 2.161-7.683 5.138-11.289 6.824-3.279 1.534-8.052 3.042-10.35 3.294-6.174.676-6.518-5.176-3.402-6.662 2.818-1.346 9.332-3.067 14.642-5.875 4.27-2.257 6.611-3.989 10.184-7.213-.112-3.146.083-7.328.668-9.667-3.13 1.973-12.84 7.568-18.564 10.357-5.098 2.486-12.637 5.666-15.777 6.375-6.3667 1.436-6.0867-6.717-2.6013-7.809 5.1643-1.618 11.7603-4.096 20.5163-8.328 6.966-3.367 13.924-7.862 18.582-12.196 2.931-15.135 6.496-28.535 6.564-39.456.058-9.167-1.662-19.036-11.246-25.39-.515 11.495-3.336 16.655-9.44 21.567-8.536 6.871-17.65 7.961-27.059 8.059-12.976.132-38.012-10.636-44.6893-16.707-2.2814-2.073-7.0734-7.429-1.544-9.869m8.0293 5.286c4.7413 2.659 15.7773 8.171 23.456 10.476 9.8613 2.959 22.788 3.58 30.235-.018 11.55-5.582 13.793-9.982 12.946-22.19-4.19-2.017-8.65-1.893-14.372-.864-3.289 2.548-5.026 12.363-5.241 15.771-.172 2.712-5.628 4.38-7.4507.304-.9346-2.089.6494-9.136 2.0014-13.223-2.296-.436-13.128 6.646-15.9174 8.556-3.6893 2.528-9.5653-.917-4.276-6.654 2.7947-3.032 13.1587-9.427 21.0817-11.495-1.7963-2.293-4.363-3.496-6.235-5.172-1.3613-1.22-.332-7.129 5.0173-5.629 1.1057.31 3.6617 2.005 5.3217 3.346 2.172 1.755 4.106 4.274 5.698 5.64 4.483-.174 8.136-.969 13.308.14-1.062-15.47-11.242-17.573-18.772-16.302-14.1397 2.386-20.0357 13.853-27.0837 20.914-5.772 5.786-10.356 10.276-19.7173 16.4m124.568-8.71c-10.532.018-19.185-6.115-23.72-9.715 3.979-2.231 7.627-4.893 10.643-6.237 2.129 1.282 5.116 2.932 7.906 3.804 3.167.988 8.902 2.076 11.1 2.129 4.258.103 5.371-7.352.76-7.909-2.454-.298-8.388-.838-11.1-2.739 4.587-2.663 8.363-4.335 12.164-6.845 3.74-2.47 9.328-6.386 10.644-8.214 2.407-3.346-.956-6.374-4.714-5.476-2.656.635-6.967 5.066-10.643 7.302-3.877 2.357-10.669 6.464-12.62 6.845-.611-4.419 1.937-6.476 2.433-7.759 2.052-5.298-2.036-6.366-4.105-5.322-2.056 1.034-8.037 10.477-7.147 17.948-3.725 2.256-6.445 4.42-10.948 6.236-4.214-4.984-7.474-11.459-2.128-18.404 3.695-4.8 15.062-10.558 26.299-12.168 10.836-1.552 25.321-.28 37.257-4.412-.228 7.884-4.17 19.962-7.76 26.925-6.345 12.304-13.014 21.869-24.321 24.011M205.749 1.952l12.934.256c.316 9.079.602 17.127.174 25.215l-.33 19.268c.014 2.453.57 4.818.33 8.664-.466.014-1.922.408-3.501.377-1.493-.028-6.835-.377-9.56-.377 0-.967.403-1.767.308-2.59-.991-8.58.008-17.224-.355-25.864-.237-5.646-.332-14.164.047-17.328.279-2.326-.047-5.249-.047-7.621M224.163 2.483l9.417-.32c3.479 8.314 6.004 13.597 10.595 21.412.368-1.302.458-2.962.33-4.924-.13-2.004.047-5.264-.01-6.211.142-3.461.285-6.923.429-10.385 4.584-.678 7.723-.394 9.739-.214l.16 53.742-3.158.217c-2.197-.072-3.688-.464-5.885-.536-4.581-9.613-7.512-14.153-11.131-25.159l-.428 3.426c-.034 7.28-.07 14.56-.106 21.841-3.903.605-6.479-.071-9.846-.215l-.213-19.272c-.677-8.29-.419-14.297.083-24.944ZM407.665 1.952l12.934.256c.316 9.079.602 17.127.174 25.215l-.33 19.268c.014 2.453.57 4.818.33 8.664-.465.014-1.922.408-3.501.377-1.493-.028-6.835-.377-9.56-.377 0-.967.404-1.767.308-2.59-.991-8.58.008-17.224-.355-25.864-.236-5.646-.332-14.164.047-17.328.279-2.326-.047-5.249-.047-7.621M280.875 22.705c1.032.324 3.096.974 4.7 1.092 1.712.128 4.444.42 5.573-.328 1.129-.746 1.239-2.713 1.201-4.153-.054-2.077-.218-5.816-1.53-8.308-1.458-2.771-4.299-6.541-7.212-8.309C280.693.931 276.523.367 273.335.403c-3.067.034-6.556.51-8.851 2.514-2.295 2.006-4.563 5.96-4.919 9.511-.746 7.453-.528 28.188.438 35.203.397 2.881 3.024 5.393 5.356 6.886 2.33 1.495 5.673 2.139 8.632 2.078 4.334-.091 9.416-.948 13.222-4.81 1.991-2.021 3.643-5.157 4.372-7.872.727-2.709.272-6.705 0-8.417-.13-.816-.828-1.711-1.64-1.859-1.694-.31-5.921-.329-8.524 0-.746 1.312.364 4.938-.546 6.668-.911 1.732-3.235 4.09-4.918 3.718-3.878-.856-4.742-3.156-5.244-5.686-.929-4.682-.129-16.945-.329-22.41-.047-1.275 1.748-2.259 2.951-2.734 1.202-.473 3.097-.746 4.262-.109 1.166.637 2.695 2.312 2.731 3.936.037 1.639.377 4.336.547 5.685M296.896 54.92c2.835.149 8.504.449 10.395.404.386-.008.572-.571.945-.675.405-.113 1.284.454 1.484 0 .271-.608.168-2.43.135-3.646-.044-1.666-.404-4.227-.404-6.347 0-2.431-.451-6.595.404-8.239 1.801 1.734 7.874 12.672 10.394 18.638 3.206.681 9.967.426 12.015.134.629-.09.564-1.326.269-1.89-4.07-7.832-10.484-16.094-12.553-19.582-.232-.39-.245-1.106.135-1.352 1.013-.652 4.368-1.089 5.94-2.565 4.341-4.075 5.264-8.373 5.534-12.155.267-3.736-1.665-7.832-3.914-10.533-2.25-2.7-5.92-5.08-9.584-5.672-5.018-.811-16.987.473-20.519.811-.461.044-.676.752-.676 1.214 0 5.494.631 23.431.676 31.738.033 6.033-.293 14.809-.405 18.096-.019.548-.187 1.262-.271 1.621m11.275-32.328a3.13 3.13 0 0 1-.475-.219c-.112-1.822-.263-6.55-.136-9.049.985-.613 2.863-1.841 4.456-1.755 1.664.09 4.369.878 5.533 2.295 2.08 2.532 1.354 6.205-.404 7.428-1.47 1.024-3.15 1.307-5.805 1.351-1.067.017-2.075.348-3.169-.051M336.201 3.34c1.632-.141 4.896-.423 7.351-.46 5.18-.076 19.703-.715 23.736 0 .157.921.433 2.961.46 4.289.024 1.23-.205 2.606-.307 3.678-.088.921.318 2.849-.306 2.757-.762-.112-1.328.132-1.684.459-8.722.381-14.723-.234-18.071.46.007 2.41-.325 6.058 0 8.733 2.505.324 5.507.599 9.495.767.132 2.517.178 8.093-.154 9.804-.12.62-1.209.394-1.837.46-1.48.153-4.755.426-7.044.46.143 2.633-.572 6.642-.153 9.804 3.27-.111 7.317.428 10.718.613 3.059.168 6.903-.141 9.19 0 .524 1.988.113 5.22 0 6.895-.074 1.07-.162 2.488-.682 3.149-2.606-.052-6.284.06-9.426.067-4.659.012-15.16.102-18.53 0-.597-.018-1.224-.511-1.684-.612-.349-.079-1.057.356-1.072 0-.256-6.41-.408-30.591-.46-38.455-.018-2.911.078-6.587.154-8.732.049-1.381.221-3.219.306-4.136M497.572 3.745c1.632-.141 4.896-.422 7.351-.46 5.181-.076 19.704-.714 23.736 0 .157.923.433 2.962.46 4.29.024 1.23-.204 2.605-.307 3.677-.088.921.317 2.851-.307 2.757-.761-.112-1.326.134-1.684.46-8.72.38-14.722-.234-18.07.46.006 2.41-.326 6.059 0 8.732 2.505.324 5.506.599 9.494.767.132 2.517.179 8.093-.153 9.804-.12.62-1.209.395-1.837.46-1.48.153-4.755.427-7.044.46.142 2.633-.572 6.643-.154 9.804 3.271-.109 7.318.428 10.72.613 3.058.168 6.902-.14 9.188 0 .524 1.988.114 5.22 0 6.895-.073 1.072-.161 2.488-.681 3.149-2.607-.05-6.284.06-9.425.067-4.66.012-15.16.103-18.53 0-.598-.017-1.225-.509-1.685-.612-.349-.077-1.057.357-1.072 0-.256-6.409-.408-30.589-.459-38.455-.018-2.91.076-6.586.154-8.732.049-1.381.22-3.217.305-4.136M372.352 2.828c4.679-.797 8.881-.9 12.565-.711 3.235.166 7.114-.064 9.54 1.842 7.09 5.568 9.323 14.714 9.267 22.794-.027 3.898.136 8.352-.723 11.895-.813 3.355-2.788 6.669-4.43 9.36-1.508 2.472-4.215 6.616-5.424 6.784-5.987.391-15.624.539-18.987.24-.741.151-.525-1.771-1.12-2.243-.337-5.344-.783-21.494-.897-29.821-.092-6.713.109-15.664.209-20.14m10.709 15.5c-.321 5.713-.05 16.285.06 20.565 2.954.3 4.791.42 5.9.062 4.855-3.144 5-8.431 4.683-11.804-.328-3.475-2.251-6.958-4.075-8.519-2.394-.564-4.492-.343-6.568-.304M441.62 44.671c-1.359.008-3.387-.276-4.796-.575-.14-3.208.075-6.057.121-8.893.251-.343.751-1.036 1.318-1.078 2.534.16 3.72-.077 5.266.599 1.866.816 3.512 3.341 3.376 4.904-.278 3.228-.982 3.883-1.94 4.301-1.156.507-2.116.718-3.214.74-.043.002-.087.002-.131.002m-4.567-21.087c-.133-3.076.071-6.449.115-9.168.24-.328.719-.993 1.26-1.032 2.425.153 3.503.08 5.041.573 2.443.783 3.566 2.628 3.436 4.126-.266 3.094-1.145 4.297-2.062 4.698-1.106.486-2.235 1.022-3.436 1.146-1.299.134-2.96-.048-4.354-.343m-10.194 31.744c6.32.269 13.006.352 20.276 0 3.684-1.356 9.392-1.489 11.454-12.263.784-4.096-1.929-9.321-5.04-11.918-.91-.76-1.51-1.456-.114-3.552 1.77-2.659 3.418-7.775 3.321-11.804-.077-3.21-2.4-11.859-10.652-13.639-4.345-.936-10.275-1.091-13.404-.572-1.801.299-3.696 1.087-5.612 1.26-.191 6.781-.192 24.143-.688 34.38-.027 6.037.411 14.135.459 18.108M461.859 2.575c.47-.292 1.412-.876 2.21-.967 1.614-.185 5.922-.279 7.466-.14.677.061 1.734.291 1.796.969.369 4.034.253 16.986.414 23.231.123 4.751.484 11.339.554 14.244.025 1.06-.143 2.323-.139 3.18 2.465.323 8.431.253 11.611.415 2.492.126 4.838.138 7.464.552 0 1.521-.068 3.688 0 5.256.061 1.388.506 3.156.414 4.148-.062.677-.288 1.76-.968 1.797-5.436.023-21.285.484-30.822 0-.824-3.711.092-7.167.137-9.541.031-1.567.133-3.134.139-4.702.024-6.177.046-25.95 0-32.357-.291-2.86-.188-4.733-.276-6.085M278.731 63.404l12.933.257c.316 9.078.603 17.126.175 25.214l-.331 19.268c.015 2.453.571 4.82.331 8.664-.466.016-1.923.408-3.502.377-1.493-.028-6.833-.377-9.56-.377 0-.967.404-1.767.31-2.59-.992-8.58.006-17.222-.356-25.864-.236-5.646-.332-14.164.046-17.326.279-2.328-.046-5.251-.046-7.623M368.232 65.805c1.632-.141 4.896-.422 7.351-.458 5.181-.076 19.704-.715 23.736 0 .157.921.433 2.961.46 4.289.024 1.229-.204 2.604-.307 3.677-.088.92.317 2.85-.307 2.758-.761-.114-1.326.132-1.684.458-8.72.382-14.722-.233-18.07.46.006 2.411-.326 6.059 0 8.732 2.506.326 5.506.599 9.494.767.132 2.517.179 8.095-.153 9.805-.12.62-1.209.395-1.837.459-1.48.153-4.755.427-7.044.46.142 2.635-.572 6.643-.154 9.805 3.272-.11 7.318.428 10.72.614 3.058.166 6.902-.142 9.188 0 .524 1.988.114 5.22 0 6.893-.073 1.072-.161 2.488-.681 3.151-2.607-.052-6.284.058-9.425.066-4.66.011-15.16.103-18.53 0-.598-.018-1.225-.51-1.685-.612-.349-.078-1.057.356-1.072 0-.256-6.409-.408-30.59-.459-38.454-.018-2.911.076-6.588.154-8.732.049-1.382.22-3.219.305-4.138M242.201 65.295c4.678-.799 8.882-.9 12.566-.712 3.234.165 7.113-.063 9.54 1.842 7.089 5.568 9.322 14.715 9.266 22.794-.026 3.898.136 8.352-.722 11.894-.814 3.356-2.788 6.671-4.431 9.362-1.508 2.472-4.215 6.614-5.425 6.784-5.986.39-15.623.537-18.986.238-.741.152-.525-1.769-1.12-2.241-.337-5.344-.782-21.495-.897-29.821-.092-6.714.108-15.664.209-20.14m10.71 15.5c-.322 5.712-.051 16.285.06 20.565 2.953.3 4.79.419 5.9.06 4.854-3.143 5-8.431 4.682-11.803-.328-3.474-2.25-6.957-4.074-8.518-2.395-.566-4.494-.343-6.568-.304M311.875 106.327c-1.359.006-3.387-.276-4.796-.575-.14-3.209.074-6.057.121-8.895.251-.341.751-1.036 1.317-1.077 2.535.16 3.72-.077 5.266.599 1.866.817 3.513 3.342 3.377 4.904-.279 3.228-.983 3.882-1.94 4.301-1.156.507-2.116.717-3.215.74-.042.001-.086.001-.13.003m-4.567-21.088c-.133-3.076.069-6.45.115-9.168.24-.328.718-.994 1.26-1.032 2.425.153 3.502.081 5.04.573 2.444.783 3.566 2.628 3.437 4.125-.267 3.095-1.145 4.298-2.063 4.699-1.105.485-2.234 1.023-3.436 1.147-1.298.133-2.96-.05-4.353-.344m-10.196 31.744c6.321.27 13.008.353 20.276 0 3.685-1.356 9.393-1.49 11.456-12.263.784-4.096-1.929-9.321-5.04-11.919-.911-.758-1.511-1.456-.115-3.552 1.771-2.657 3.419-7.774 3.322-11.804-.078-3.209-2.4-11.857-10.654-13.637-4.344-.937-10.273-1.092-13.402-.573-1.802.298-3.696 1.086-5.612 1.261-.191 6.78-.192 24.141-.688 34.38-.027 6.037.41 14.133.457 18.107M332.519 64.636c.47-.292 1.412-.876 2.21-.968 1.614-.184 5.922-.277 7.466-.139.677.062 1.734.291 1.796.968.369 4.035.253 16.986.414 23.232.123 4.75.484 11.339.554 14.243.025 1.061-.143 2.324-.139 3.18 2.465.323 8.431.255 11.611.416 2.492.127 4.838.137 7.464.552 0 1.521-.068 3.688 0 5.255.061 1.388.506 3.157.414 4.148-.062.677-.288 1.76-.968 1.798-5.436.023-21.285.484-30.822 0-.824-3.71.092-7.168.137-9.541.031-1.568.133-3.135.139-4.703.024-6.176.046-25.949 0-32.357-.291-2.86-.188-4.732-.276-6.084M469.62 179.041c2.835.15 8.504.45 10.393.404.388-.008.574-.57.947-.674.405-.114 1.283.453 1.484 0 .271-.608.167-2.431.135-3.647-.044-1.665-.404-4.227-.404-6.347 0-2.43-.451-6.594.404-8.238 1.8 1.733 7.874 12.672 10.394 18.637 3.206.681 9.967.427 12.015.135.629-.091.563-1.327.269-1.891-4.07-7.832-10.485-16.093-12.554-19.581-.231-.391-.244-1.107.136-1.352 1.012-.652 4.368-1.09 5.94-2.566 4.341-4.074 5.264-8.373 5.534-12.154.267-3.736-1.666-7.832-3.916-10.534-2.249-2.7-5.918-5.08-9.584-5.672-5.017-.81-16.985.474-20.518.811-.462.044-.675.752-.675 1.215 0 5.493.629 23.43.675 31.737.033 6.033-.292 14.809-.406 18.096-.018.548-.186 1.263-.269 1.621m11.273-32.328a3.26 3.26 0 0 1-.473-.218c-.112-1.823-.264-6.551-.136-9.05.984-.613 2.861-1.841 4.455-1.754 1.665.089 4.37.878 5.534 2.294 2.08 2.532 1.354 6.206-.404 7.428-1.472 1.024-3.152 1.307-5.805 1.351-1.067.017-2.076.348-3.171-.051M406.872 169.397c-.835-.088-1.876-.606-2.619-.714-.14-3.208-.196-6.523-.149-9.359.251-.343 1.06-.608 1.625-.648 2.535.16 4.218-.343 5.764.333 1.866.816 3.206 3.055 3.239 4.623.055 2.609-.455 4.843-3.381 5.527-1.024.24-4.435.238-4.479.238m-2.189-21.728c-.134-3.568-.188-6.257-.144-8.958.24-.327.744-1.199 1.286-1.239 2.426.153 3.652-.016 5.191.476 2.444.784 3.701 3.031 3.573 4.528-.266 3.095-1.417 4.411-2.334 4.812-1.106.485-2.436.697-3.69.761-1.262.063-2.49-.084-3.882-.38m-10.667 31.78c10.612.998 17.479.923 21.335.384 3.684-1.356 9.13-.997 11.193-11.77.784-4.096-2.271-10.41-5.383-13.007-.909-.76-.966-1.383.43-3.479 1.769-2.658 3.286-6.454 2.857-12.342-.233-3.202-1.464-11.18-11.193-13.246-4.348-.924-9.055-.918-13.396-.288-1.54.224-3.31.59-5.655 1.144-.191 6.782.352 24.452-.144 34.69-.025 6.037-.091 13.941-.044 17.914M207.639 127.103c.47-.292 1.412-.876 2.21-.968 1.614-.184 5.922-.278 7.466-.139.677.06 1.734.291 1.796.968.369 4.033.253 16.985.414 23.231.123 4.75.484 11.34.554 14.244.025 1.061-.143 2.322-.139 3.18 2.465.322 8.431.253 11.611.414 2.492.127 4.838.139 7.464.554 0 1.521-.068 3.688 0 5.254.061 1.388.506 3.158.414 4.148-.062.678-.288 1.76-.966 1.798-5.438.022-21.287.485-30.824 0-.824-3.711.092-7.167.137-9.54.031-1.568.133-3.135.139-4.703.024-6.177.046-25.951 0-32.357-.291-2.86-.188-4.734-.276-6.084M258.231 136.823c2.313-.272 3.688.402 4.837 1.306 1.148.906 1.66 2.636 2.057 4.119.412 1.532.275 3.749.411 5.076.1.965.388 1.912.412 2.881.052 2.076 0 7.602-.103 9.575-.04.773-.412 1.497-.513 2.265-.155 1.167.171 3.368-.412 4.736-.584 1.368-1.505 2.924-3.088 3.47-1.645.153-5.853.502-7.717-.824-2.574-1.939-2.046-2.704-2.162-3.058-.476-1.452-.558-3.009-.72-4.53-.172-1.612-.206-3.928-.309-5.147-.061-.725-.309-1.435-.309-2.163 0-1.342-.291-4.492.309-5.898.06-1.052.047-2.118.207-3.162.17-1.126.305-2.484.822-3.602.532-1.15 1.322-2.454 2.367-3.295 1.047-.84 2.916-1.632 3.911-1.749m-1.235-10.636c-2.711.304-4.649.309-9.263 2.884-2.726 1.521-4 5.868-4.424 9.265-.806 6.452-.738 23.061-.412 29.444.155 3.051.926 6.691 2.367 8.853 1.388 2.083 3.859 3.479 6.277 4.118 2.934.205 6.839.509 10.086.206 6.242-1.114 11.097-3.722 11.937-10.604.833-.9 1.071-2.276 1.132-3.501.257-5.129.463-22.1.411-27.281-.012-1.292-.179-2.636-.72-3.81-.738-1.596-1.922-4.337-3.704-5.764-1.972-1.578-3.586-3.157-8.131-3.706-1.115-.351-4.761-.083-5.556-.104M525.831 137.228c2.313-.272 3.688.403 4.837 1.307 1.148.905 1.659 2.636 2.057 4.118.412 1.532.275 3.75.411 5.076.1.966.388 1.912.412 2.883.052 2.076 0 7.601-.103 9.573-.04.774-.412 1.499-.513 2.266-.155 1.166.171 3.368-.412 4.736-.584 1.368-1.505 2.925-3.088 3.469-1.645.153-5.853.504-7.717-.824-2.574-1.939-2.046-2.704-2.162-3.057-.476-1.451-.558-3.01-.72-4.53-.172-1.613-.206-3.929-.309-5.148-.061-.725-.309-1.434-.309-2.161 0-1.344-.291-4.493.309-5.9.06-1.052.047-2.116.205-3.16.172-1.128.307-2.485.824-3.604.532-1.149 1.322-2.453 2.367-3.293 1.047-.842 2.915-1.634 3.911-1.751m-1.236-10.635c-2.71.303-4.648.308-9.262 2.883-2.728 1.521-4 5.868-4.424 9.265-.806 6.452-.738 23.062-.412 29.444.155 3.051.926 6.692 2.367 8.854 1.388 2.082 3.859 3.478 6.277 4.117 2.934.205 6.839.511 10.086.207 6.242-1.115 11.097-3.723 11.937-10.604.833-.9 1.071-2.276 1.132-3.5.257-5.131.463-22.1.411-27.282-.014-1.293-.179-2.637-.72-3.81-.738-1.595-1.922-4.338-3.704-5.764-1.972-1.579-3.586-3.158-8.131-3.707-1.115-.351-4.763-.083-5.557-.103M446.767 136.417c2.313-.273 3.688.403 4.837 1.307s1.66 2.636 2.057 4.117c.412 1.534.275 3.751.412 5.076.1.966.387 1.912.412 2.883.052 2.076 0 7.601-.104 9.575-.04.773-.412 1.497-.513 2.265-.155 1.167.171 3.368-.412 4.736s-1.504 2.924-3.087 3.468c-1.646.155-5.853.504-7.718-.823-2.574-1.938-2.046-2.704-2.162-3.057-.476-1.452-.558-3.011-.72-4.531-.17-1.612-.205-3.929-.309-5.146-.061-.726-.308-1.435-.308-2.163 0-1.343-.292-4.492.308-5.899.06-1.053.048-2.117.207-3.161.172-1.127.305-2.485.822-3.603.532-1.149 1.322-2.454 2.367-3.294 1.047-.84 2.916-1.634 3.911-1.75m-1.235-10.636c-2.711.304-4.648.31-9.261 2.883-2.728 1.523-4.002 5.869-4.426 9.265-.806 6.452-.738 23.063-.412 29.446.156 3.05.926 6.69 2.367 8.853 1.388 2.081 3.859 3.479 6.277 4.117 2.934.206 6.839.51 10.086.207 6.242-1.115 11.097-3.724 11.937-10.604.833-.9 1.071-2.276 1.132-3.501.257-5.13.463-22.1.411-27.282-.012-1.292-.178-2.636-.72-3.809-.736-1.596-1.92-4.337-3.704-5.765-1.972-1.579-3.586-3.158-8.13-3.707-1.116-.349-4.762-.083-5.557-.103M279.799 127.655c4.766.105 8.728.032 10.857.714.239 5.122-.096 23.2 0 28.298.015.785.523 1.502.572 2.286.096 1.55-.041 4.37 0 7.004.771 1.783 1.905 3.708 4.62 3.69 3.273-.023 4.3-1.059 5.093-2.832.083-2.558 0-6.884.143-8.862.075-1.026.7-1.973.715-3.001.072-4.907-.191-21.891-.286-26.44.364-.148 1.631.291 2.287 0 .943-.417 2.549-.667 3.856-.715 1.309-.048 3.095.263 4 .43.505.093 1.405.058 1.429.57.244 5.231.16 25.463.035 30.811-.012.5-.733.78-.791 1.277-.172 1.491.202 5.202-.242 7.667-.446 2.465-.862 5.165-2.431 7.123-1.619 2.021-4.471 4.134-7.285 5.002-2.858.882-7.167.595-9.858.286-2.2-.254-4.532-.791-6.285-2.143-2.089-1.612-5.267-3.795-6.253-7.531-.068-.64.282-.814-.034-2.474-.082-7.687-.15-29.966-.142-41.16M547.968 127.844c4.767.105 8.728.032 10.857.715.239 5.121-.096 23.2 0 28.297.015.785.523 1.503.572 2.287.096 1.548-.041 4.369 0 7.004.771 1.781 1.906 3.708 4.62 3.689 3.274-.023 4.3-1.059 5.094-2.832.082-2.557 0-6.885.142-8.861.075-1.027.7-1.974.715-3.003.072-4.905-.191-21.889-.285-26.439.362-.148 1.63.291 2.285 0 .944-.417 2.551-.666 3.857-.714 1.31-.048 3.095.261 4 .429.504.093 1.406.059 1.43.571.244 5.23.16 25.461.034 30.809-.012.501-.733.781-.79 1.279-.172 1.49.201 5.2-.244 7.665-.444 2.465-.86 5.167-2.43 7.124-1.618 2.021-4.47 4.135-7.285 5.003-2.857.88-7.167.594-9.857.285-2.2-.253-4.532-.791-6.286-2.144-2.09-1.612-5.266-3.793-6.254-7.529-.067-.64.284-.815-.032-2.475-.084-7.687-.151-29.965-.143-41.16M340.867 143.352c-.319-1.18-.956-3.539-1.911-4.628-.94-1.071-2.397-1.88-3.821-1.911-1.492-.033-4.074.654-5.13 1.71s-1.005 2.213-1.206 4.628c.04 1.224.18 2.37-.503 3.722.068 3.807.301 15.275.905 19.115.247 1.571 1.323 3.336 2.715 3.924 1.392.587 4.207.133 5.632-.403 1.265-.476 2.425-1.557 2.916-2.817.503-1.291.368-3.369.1-4.929-1.676-.251-4.223.15-5.932-.202-.301-2.262.017-6.354-.101-7.948.064-.52.684-.985 1.206-1.005 2.615-.101 11.096.001 14.482.403.872 3.42.436 13.346.402 17.102-.118 1.906-.594 3.962-1.81 5.434-1.358 1.642-2.782 2.665-6.335 4.425-.971.48-2.14.919-3.219 1.007-2.262.184-8.061.117-11.061-.102-2.68-.666-4.795-2.632-6.236-4.325-1.364-1.603-1.913-3.791-2.413-5.836-.552-2.263-.671-6.187-.904-7.745-.084-.556-.502-1.048-.503-1.611-.017-3.805.067-16.483.401-21.228.175-2.467.386-5.164 1.61-7.243 1.224-2.08 3.972-4.125 5.732-5.232 1.418-.892 3.161-1.224 4.826-1.408 1.978-.218 4.743-.32 7.04.1 2.296.42 4.876.923 6.738 2.415 2.028 1.627 4.341 3.908 5.43 7.345.732 2.307.838 4.576.503 7.243-3.653.251-5.916.319-7.341.303-.424-.006-.838-.354-1.207-.404-.333-.046-.783.052-1.005.101M608.465 143.96c-.318-1.18-.954-3.537-1.909-4.628-.94-1.071-2.397-1.879-3.821-1.911-1.492-.033-4.074.654-5.13 1.711-1.056 1.056-1.005 2.212-1.206 4.627.04 1.224.18 2.37-.503 3.722.068 3.807.301 15.275.905 19.115.247 1.572 1.323 3.337 2.715 3.924 1.392.588 4.207.135 5.632-.403 1.265-.476 2.425-1.557 2.916-2.817.503-1.291.368-3.369.1-4.929-1.676-.251-4.223.152-5.932-.2-.301-2.264.017-6.356-.101-7.948.064-.52.684-.987 1.206-1.007 2.615-.1 11.096.001 14.482.403.872 3.42.436 13.346.402 17.102-.12 1.906-.596 3.962-1.81 5.434-1.358 1.644-2.782 2.665-6.335 4.425-.971.481-2.14.919-3.219 1.007-2.262.184-8.061.117-11.061-.102-2.68-.666-4.795-2.632-6.236-4.325-1.364-1.603-1.913-3.789-2.413-5.835-.552-2.264-.671-6.188-.904-7.746-.084-.556-.502-1.048-.503-1.61-.017-3.806.067-16.484.401-21.228.175-2.468.386-5.165 1.61-7.244 1.224-2.078 3.972-4.124 5.732-5.23 1.418-.894 3.161-1.226 4.826-1.41 1.978-.218 4.743-.318 7.04.1 2.296.42 4.876.923 6.738 2.416 2.028 1.627 4.341 3.907 5.43 7.344.732 2.307.838 4.578.503 7.243-3.653.252-5.916.32-7.341.303-.424-.006-.838-.354-1.207-.403-.333-.047-.783.051-1.007.1M355.957 126.464c1.243.067 3.726.199 4.667.108.389-.037.587-.612.976-.651.724-.072 2.587.091 3.364.218.464.074 1.092.121 1.303.542.217.434-.055 1.502 0 2.063.042.445.313.855.325 1.303.055 2.064-.108 9.102 0 11.074.019.334.616.428.651.76.092.868-.29 3.564-.108 4.451.098.483.706.799 1.194.869 1.012.146 3.888.108 4.883 0 .42-.045.669-.58 1.085-.652.526-.089 1.983.794 2.063.11.38-3.276.053-16.34.217-19.76.016-.358.462-.562.759-.76.325-.218.933-.543 1.195-.543 1.628 0 4.665-.036 8.464.217.433 3.076.306 11.4.433 13.896.02.378.316.708.327 1.086.072 2.569.036 11.67.108 14.332.016.552.302 1.074.325 1.628.109 2.552.181 11.056.327 13.68.038.709.501 1.353.542 2.062.091 1.592-.037 5.067 0 7.491-3.002.037-9.08.291-10.853-.108-.744-.168.344-1.719.217-2.28-.106-.475-.958-.599-.977-1.085-.108-2.787.381-12.92.327-15.635-.007-.307-.542-.364-.651-.651-.145-.38.252-1.376-.217-1.629-.471-.252-1.919.181-2.606.109-.534-.056-1.013-.525-1.518-.542-.507-.018-.996.376-1.52.433-.814.092-2.192-.019-3.364.109-.255 3.258-.038 15.942-.11 19.434-.01.518.187 1.441-.325 1.52-2.315.164-7.976.145-10.309.109-.488-2.967-.307-7.059-.434-8.795-.041-.552-.318-1.074-.326-1.628-.072-5.393.001-24.9-.108-30.725-.027-1.424-.506-2.812-.543-4.235-.055-2.026.127-5.958.217-7.925M624.044 127.925c1.241.066 3.725.199 4.667.108.389-.037.586-.613.976-.652.722-.072 2.586.091 3.364.218.464.076 1.092.121 1.302.542.218.435-.054 1.502 0 2.063.043.445.314.856.326 1.303.054 2.064-.11 9.102 0 11.074.018.334.616.428.65.76.091.868-.289 3.564-.108 4.451.098.483.707.8 1.195.869 1.012.146 3.888.108 4.883 0 .42-.045.669-.58 1.085-.652.524-.089 1.983.794 2.061.11.382-3.275.055-16.34.218-19.76.017-.358.462-.562.76-.76.325-.218.933-.543 1.194-.543 1.628 0 4.664-.036 8.464.217.434 3.076.307 11.4.434 13.898.02.376.316.706.326 1.085.072 2.569.036 11.671.108 14.331.016.553.302 1.074.326 1.628.109 2.552.181 11.056.326 13.68.039.709.502 1.353.542 2.062.092 1.594-.036 5.067 0 7.492-3.002.036-9.079.29-10.852-.109-.744-.167.344-1.719.217-2.28-.107-.475-.959-.599-.977-1.085-.108-2.787.38-12.92.326-15.635-.006-.307-.542-.364-.652-.651-.144-.38.254-1.376-.217-1.628-.469-.253-1.917.18-2.604.108-.535-.056-1.013-.524-1.519-.542s-.996.376-1.52.434c-.814.091-2.192-.02-3.364.108-.254 3.258-.037 15.942-.109 19.434-.011.518.187 1.442-.325 1.521-2.315.163-7.976.144-10.31.108-.488-2.967-.308-7.057-.433-8.795-.041-.552-.32-1.074-.327-1.628-.072-5.392.002-24.898-.108-30.725-.026-1.423-.505-2.812-.542-4.235-.055-2.025.126-5.958.217-7.924M206.051 65.4c1.632-.141 4.896-.423 7.35-.459 5.18-.077 19.703-.714 23.736 0 .158.922.434 2.96.46 4.288.024 1.231-.205 2.606-.306 3.679-.088.92.317 2.849-.307 2.757-.761-.113-1.328.132-1.684.459-8.721.38-14.724-.233-18.071.46.007 2.411-.325 6.059 0 8.732 2.506.325 5.506.599 9.495.767.132 2.517.179 8.094-.153 9.805-.12.62-1.21.393-1.838.459-1.48.153-4.754.426-7.044.46.143 2.634-.573 6.642-.153 9.805 3.271-.111 7.317.427 10.719.613 3.058.167 6.902-.141 9.189 0 .524 1.987.113 5.219 0 6.894-.073 1.072-.161 2.488-.681 3.15-2.608-.052-6.284.059-9.427.067-4.659.011-15.16.101-18.529 0-.598-.019-1.226-.511-1.684-.613-.35-.078-1.059.357-1.072 0-.256-6.408-.408-30.59-.46-38.454-.019-2.91.077-6.588.153-8.733.049-1.381.221-3.217.307-4.136"/></g></svg>