<svg xmlns="http://www.w3.org/2000/svg" xmlns:xlink="http://www.w3.org/1999/xlink" width="657.92" height="182.4"><g id="dp_dp001" transform="matrix(1,0,0,1,-46.556,-464.588)"><path id="dp_path002" fill="white" fill-rule="evenodd" stroke="none" stroke-width="0" d="M 49.7747,528.823 C 57.0907,525.595 63.5853,521.443 67.5467,516.808 C 75.2187,507.835 89.1467,487.865 106.592,488.572 C 117.208,489.003 129.759,492.22 131.288,515.397 C 135.051,518.327 139.403,520.024 142.577,523.161 C 143.611,520.733 146.872,516.556 147.988,514.925 C 141.733,507.985 133.084,494.787 145.871,484.807 C 158.547,474.915 172.543,470.985 185.407,470.965 C 194.095,470.952 212.12,466.571 217.139,465.747 C 220.853,465.137 224.661,469.567 223.019,475.395 C 220.376,484.768 221.819,493.905 207.909,516.295 C 203.433,523.5 193.412,532.685 184.209,533.516 C 175.007,534.347 160.845,528.887 152.692,521.279 C 150.541,523.497 149.135,527.34 148.34,531.203 C 150.965,537.085 152.121,547.48 151.516,556.575 C 150.867,566.328 147.467,580.099 145.664,590.099 C 151.637,594.417 155.829,599.343 161.864,602.46 C 168.132,605.696 178.003,608.612 183.268,609.519 C 189.52,610.593 187.496,619.379 179.74,617.048 C 175.419,615.751 165.981,613.597 159.983,610.696 C 154.091,607.844 146.58,600.841 143.753,599.636 C 142.969,602.381 141.872,606.664 143.519,609.519 C 145.312,612.627 150.489,615.875 154.509,618.283 C 158.892,620.908 165.068,623.597 169.821,625.273 C 176.931,627.779 173.443,634.073 167.592,633.081 C 162.016,632.135 148.167,623.424 143.048,619.872 C 141.423,626.583 150.033,635.449 152.456,639.403 C 155.471,644.321 148.532,647.116 146.107,643.873 C 144.805,642.133 140.617,637.319 138.453,632.337 C 136.419,627.651 135.324,625.16 134.58,621.519 C 131.756,623.68 126.897,626.657 123.291,628.343 C 120.012,629.877 115.239,631.385 112.941,631.637 C 106.767,632.313 106.423,626.461 109.539,624.975 C 112.357,623.629 118.871,621.908 124.181,619.1 C 128.451,616.843 130.792,615.111 134.365,611.887 C 134.253,608.741 134.448,604.559 135.033,602.22 C 131.903,604.193 122.193,609.788 116.469,612.577 C 111.371,615.063 103.832,618.243 100.692,618.952 C 94.3253,620.388 94.6053,612.235 98.0907,611.143 C 103.255,609.525 109.851,607.047 118.607,602.815 C 125.573,599.448 132.531,594.953 137.189,590.619 C 140.12,575.484 143.685,562.084 143.753,551.163 C 143.811,541.996 142.091,532.127 132.507,525.773 C 131.992,537.268 129.171,542.428 123.067,547.34 C 114.531,554.211 105.417,555.301 96.008,555.399 C 83.032,555.531 57.996,544.763 51.3187,538.692 C 49.0373,536.619 44.2453,531.263 49.7747,528.823 Z M 57.804,534.109 C 62.5453,536.768 73.5813,542.28 81.26,544.585 C 91.1213,547.544 104.048,548.165 111.495,544.567 C 123.045,538.985 125.288,534.585 124.441,522.377 C 120.251,520.36 115.791,520.484 110.069,521.513 C 106.78,524.061 105.043,533.876 104.828,537.284 C 104.656,539.996 99.2,541.664 97.3773,537.588 C 96.4427,535.499 98.0267,528.452 99.3787,524.365 C 97.0827,523.929 86.2507,531.011 83.4613,532.921 C 79.772,535.449 73.896,532.004 79.1853,526.267 C 81.98,523.235 92.344,516.84 100.267,514.772 C 98.4707,512.479 95.904,511.276 94.032,509.6 C 92.6707,508.38 93.7,502.471 99.0493,503.971 C 100.155,504.281 102.711,505.976 104.371,507.317 C 106.543,509.072 108.477,511.591 110.069,512.957 C 114.552,512.783 118.205,511.988 123.377,513.097 C 122.315,497.627 112.135,495.524 104.605,496.795 C 90.4653,499.181 84.5693,510.648 77.5213,517.709 C 71.7493,523.495 67.1653,527.985 57.804,534.109 Z M 182.372,525.399 C 171.84,525.417 163.187,519.284 158.652,515.684 C 162.631,513.453 166.279,510.791 169.295,509.447 C 171.424,510.729 174.411,512.379 177.201,513.251 C 180.368,514.239 186.103,515.327 188.301,515.38 C 192.559,515.483 193.672,508.028 189.061,507.471 C 186.607,507.173 180.673,506.633 177.961,504.732 C 182.548,502.069 186.324,500.397 190.125,497.887 C 193.865,495.417 199.453,491.501 200.769,489.673 C 203.176,486.327 199.813,483.299 196.055,484.197 C 193.399,484.832 189.088,489.263 185.412,491.499 C 181.535,493.856 174.743,497.963 172.792,498.344 C 172.181,493.925 174.729,491.868 175.225,490.585 C 177.277,485.287 173.189,484.219 171.12,485.263 C 169.064,486.297 163.083,495.74 163.973,503.211 C 160.248,505.467 157.528,507.631 153.025,509.447 C 148.811,504.463 145.551,497.988 150.897,491.043 C 154.592,486.243 165.959,480.485 177.196,478.875 C 188.032,477.323 202.517,478.595 214.453,474.463 C 214.225,482.347 210.283,494.425 206.693,501.388 C 200.348,513.692 193.679,523.257 182.372,525.399 Z "></path><path id="dp_path003" fill="white" fill-rule="evenodd" stroke="none" stroke-width="0" d="M 252.305,466.54 L 265.239,466.796 C 265.555,475.875 265.841,483.923 265.413,492.011 L 265.083,511.279 C 265.097,513.732 265.653,516.097 265.413,519.943 C 264.947,519.957 263.491,520.351 261.912,520.32 C 260.419,520.292 255.077,519.943 252.352,519.943 C 252.352,518.976 252.755,518.176 252.66,517.353 C 251.669,508.773 252.668,500.129 252.305,491.489 C 252.068,485.843 251.973,477.325 252.352,474.161 C 252.631,471.835 252.305,468.912 252.305,466.54 Z "></path><path id="dp_path004" fill="white" fill-rule="evenodd" stroke="none" stroke-width="0" d="M 270.719,467.071 L 280.136,466.751 C 283.615,475.065 286.14,480.348 290.731,488.163 C 291.099,486.861 291.189,485.201 291.061,483.239 C 290.931,481.235 291.108,477.975 291.051,477.028 C 291.193,473.567 291.336,470.105 291.48,466.643 C 296.064,465.965 299.203,466.249 301.219,466.429 L 301.379,520.171 L 298.221,520.388 C 296.024,520.316 294.533,519.924 292.336,519.852 C 287.755,510.239 284.824,505.699 281.205,494.693 L 280.777,498.119 C 280.743,505.399 280.707,512.679 280.671,519.96 C 276.768,520.565 274.192,519.889 270.825,519.745 L 270.612,500.473 C 269.935,492.183 270.193,486.176 270.695,475.529 Z "></path><path id="dp_path005" fill="white" fill-rule="evenodd" stroke="none" stroke-width="0" d="M 454.221,466.54 L 467.155,466.796 C 467.471,475.875 467.757,483.923 467.329,492.011 L 466.999,511.279 C 467.013,513.732 467.569,516.097 467.329,519.943 C 466.864,519.957 465.407,520.351 463.828,520.32 C 462.335,520.292 456.993,519.943 454.268,519.943 C 454.268,518.976 454.672,518.176 454.576,517.353 C 453.585,508.773 454.584,500.129 454.221,491.489 C 453.985,485.843 453.889,477.325 454.268,474.161 C 454.547,471.835 454.221,468.912 454.221,466.54 Z "></path><path id="dp_path006" fill="white" fill-rule="evenodd" stroke="none" stroke-width="0" d="M 327.431,487.293 C 328.463,487.617 330.527,488.267 332.131,488.385 C 333.843,488.513 336.575,488.805 337.704,488.057 C 338.833,487.311 338.943,485.344 338.905,483.904 C 338.851,481.827 338.687,478.088 337.375,475.596 C 335.917,472.825 333.076,469.055 330.163,467.287 C 327.249,465.519 323.079,464.955 319.891,464.991 C 316.824,465.025 313.335,465.501 311.04,467.505 C 308.745,469.511 306.477,473.465 306.121,477.016 C 305.375,484.469 305.593,505.204 306.559,512.219 C 306.956,515.1 309.583,517.612 311.915,519.105 C 314.245,520.6 317.588,521.244 320.547,521.183 C 324.881,521.092 329.963,520.235 333.769,516.373 C 335.76,514.352 337.412,511.216 338.141,508.501 C 338.868,505.792 338.413,501.796 338.141,500.084 C 338.011,499.268 337.313,498.373 336.501,498.225 C 334.807,497.915 330.58,497.896 327.977,498.225 C 327.231,499.537 328.341,503.163 327.431,504.893 C 326.52,506.625 324.196,508.983 322.513,508.611 C 318.635,507.755 317.771,505.455 317.269,502.925 C 316.34,498.243 317.14,485.98 316.94,480.515 C 316.893,479.24 318.688,478.256 319.891,477.781 C 321.093,477.308 322.988,477.035 324.153,477.672 C 325.319,478.309 326.848,479.984 326.884,481.608 C 326.921,483.247 327.261,485.944 327.431,487.293 Z "></path><path id="dp_path007" fill="white" fill-rule="evenodd" stroke="none" stroke-width="0" d="M 343.452,519.508 C 346.287,519.657 351.956,519.957 353.847,519.912 C 354.233,519.904 354.419,519.341 354.792,519.237 C 355.197,519.124 356.076,519.691 356.276,519.237 C 356.547,518.629 356.444,516.807 356.411,515.591 C 356.367,513.925 356.007,511.364 356.007,509.244 C 356.007,506.813 355.556,502.649 356.411,501.005 C 358.212,502.739 364.285,513.677 366.805,519.643 C 370.011,520.324 376.772,520.069 378.82,519.777 C 379.449,519.687 379.384,518.451 379.089,517.887 C 375.019,510.055 368.605,501.793 366.536,498.305 C 366.304,497.915 366.291,497.199 366.671,496.953 C 367.684,496.301 371.039,495.864 372.611,494.388 C 376.952,490.313 377.875,486.015 378.145,482.233 C 378.412,478.497 376.48,474.401 374.231,471.7 C 371.981,469 368.311,466.62 364.647,466.028 C 359.629,465.217 347.66,466.501 344.128,466.839 C 343.667,466.883 343.452,467.591 343.452,468.053 C 343.452,473.547 344.083,491.484 344.128,499.791 C 344.161,505.824 343.835,514.6 343.723,517.887 C 343.704,518.435 343.536,519.149 343.452,519.508 Z M 354.727,487.18 C 354.569,487.123 354.412,487.051 354.252,486.961 C 354.14,485.139 353.989,480.411 354.116,477.912 C 355.101,477.299 356.979,476.071 358.572,476.157 C 360.236,476.247 362.941,477.035 364.105,478.452 C 366.185,480.984 365.459,484.657 363.701,485.88 C 362.231,486.904 360.551,487.187 357.896,487.231 C 356.829,487.248 355.821,487.579 354.727,487.18 Z "></path><path id="dp_path008" fill="white" fill-rule="evenodd" stroke="none" stroke-width="0" d="M 382.757,467.928 C 384.389,467.787 387.653,467.505 390.108,467.468 C 395.288,467.392 409.811,466.753 413.844,467.468 C 414.001,468.389 414.277,470.429 414.304,471.757 C 414.328,472.987 414.099,474.363 413.997,475.435 C 413.909,476.356 414.315,478.284 413.691,478.192 C 412.929,478.08 412.363,478.324 412.007,478.651 C 403.285,479.032 397.284,478.417 393.936,479.111 C 393.943,481.521 393.611,485.169 393.936,487.844 C 396.441,488.168 399.443,488.443 403.431,488.611 C 403.563,491.128 403.609,496.704 403.277,498.415 C 403.157,499.035 402.068,498.809 401.44,498.875 C 399.96,499.028 396.685,499.301 394.396,499.335 C 394.539,501.968 393.824,505.977 394.243,509.139 C 397.513,509.028 401.56,509.567 404.961,509.752 C 408.02,509.92 411.864,509.611 414.151,509.752 C 414.675,511.74 414.264,514.972 414.151,516.647 C 414.077,517.717 413.989,519.135 413.469,519.796 C 410.863,519.744 407.185,519.856 404.043,519.863 C 399.384,519.875 388.883,519.965 385.513,519.863 C 384.916,519.845 384.289,519.352 383.829,519.251 C 383.48,519.172 382.772,519.607 382.757,519.251 C 382.501,512.841 382.349,488.66 382.297,480.796 C 382.279,477.885 382.375,474.209 382.451,472.064 C 382.5,470.683 382.672,468.845 382.757,467.928 Z "></path><path id="dp_path009" fill="white" fill-rule="evenodd" stroke="none" stroke-width="0" d="M 544.128,468.333 C 545.76,468.192 549.024,467.911 551.479,467.873 C 556.66,467.797 571.183,467.159 575.215,467.873 C 575.372,468.796 575.648,470.835 575.675,472.163 C 575.699,473.393 575.471,474.768 575.368,475.84 C 575.28,476.761 575.685,478.691 575.061,478.597 C 574.3,478.485 573.735,478.731 573.377,479.057 C 564.657,479.437 558.655,478.823 555.307,479.517 C 555.313,481.927 554.981,485.576 555.307,488.249 C 557.812,488.573 560.813,488.848 564.801,489.016 C 564.933,491.533 564.98,497.109 564.648,498.82 C 564.528,499.44 563.439,499.215 562.811,499.28 C 561.331,499.433 558.056,499.707 555.767,499.74 C 555.909,502.373 555.195,506.383 555.613,509.544 C 558.884,509.435 562.931,509.972 566.333,510.157 C 569.391,510.325 573.235,510.017 575.521,510.157 C 576.045,512.145 575.635,515.377 575.521,517.052 C 575.448,518.124 575.36,519.54 574.84,520.201 C 572.233,520.151 568.556,520.261 565.415,520.268 C 560.755,520.28 550.255,520.371 546.885,520.268 C 546.287,520.251 545.66,519.759 545.2,519.656 C 544.851,519.579 544.143,520.013 544.128,519.656 C 543.872,513.247 543.72,489.067 543.669,481.201 C 543.651,478.291 543.745,474.615 543.823,472.469 C 543.872,471.088 544.043,469.252 544.128,468.333 Z "></path><path id="dp_path010" fill="white" fill-rule="evenodd" stroke="none" stroke-width="0" d="M 418.908,467.416 C 423.587,466.619 427.789,466.516 431.473,466.705 C 434.708,466.871 438.587,466.641 441.013,468.547 C 448.103,474.115 450.336,483.261 450.28,491.341 C 450.253,495.239 450.416,499.693 449.557,503.236 C 448.744,506.591 446.769,509.905 445.127,512.596 C 443.619,515.068 440.912,519.212 439.703,519.38 C 433.716,519.771 424.079,519.919 420.716,519.62 C 419.975,519.771 420.191,517.849 419.596,517.377 C 419.259,512.033 418.813,495.883 418.699,487.556 C 418.607,480.843 418.808,471.892 418.908,467.416 Z M 429.617,482.916 C 429.296,488.629 429.567,499.201 429.677,503.481 C 432.631,503.781 434.468,503.901 435.577,503.543 C 440.432,500.399 440.577,495.112 440.26,491.739 C 439.932,488.264 438.009,484.781 436.185,483.22 C 433.791,482.656 431.693,482.877 429.617,482.916 Z "></path><path id="dp_path011" fill="white" fill-rule="evenodd" stroke="none" stroke-width="0" d="M 488.176,509.259 C 486.817,509.267 484.789,508.983 483.38,508.684 C 483.24,505.476 483.455,502.627 483.501,499.791 C 483.752,499.448 484.252,498.755 484.819,498.713 C 487.353,498.873 488.539,498.636 490.085,499.312 C 491.951,500.128 493.597,502.653 493.461,504.216 C 493.183,507.444 492.479,508.099 491.521,508.517 C 490.365,509.024 489.405,509.235 488.307,509.257 C 488.264,509.259 488.22,509.259 488.176,509.259 Z M 483.609,488.172 C 483.476,485.096 483.68,481.723 483.724,479.004 C 483.964,478.676 484.443,478.011 484.984,477.972 C 487.409,478.125 488.487,478.052 490.025,478.545 C 492.468,479.328 493.591,481.173 493.461,482.671 C 493.195,485.765 492.316,486.968 491.399,487.369 C 490.293,487.855 489.164,488.391 487.963,488.515 C 486.664,488.649 485.003,488.467 483.609,488.172 Z M 473.415,519.916 C 479.735,520.185 486.421,520.268 493.691,519.916 C 497.375,518.56 503.083,518.427 505.145,507.653 C 505.929,503.557 503.216,498.332 500.105,495.735 C 499.195,494.975 498.595,494.279 499.991,492.183 C 501.761,489.524 503.409,484.408 503.312,480.379 C 503.235,477.169 500.912,468.52 492.66,466.74 C 488.315,465.804 482.385,465.649 479.256,466.168 C 477.455,466.467 475.56,467.255 473.644,467.428 C 473.453,474.209 473.452,491.571 472.956,501.808 C 472.929,507.845 473.367,515.943 473.415,519.916 Z "></path><path id="dp_path012" fill="white" fill-rule="evenodd" stroke="none" stroke-width="0" d="M 508.415,467.163 C 508.885,466.871 509.827,466.287 510.625,466.196 C 512.239,466.011 516.547,465.917 518.091,466.056 C 518.768,466.117 519.825,466.347 519.887,467.025 C 520.256,471.059 520.14,484.011 520.301,490.256 C 520.424,495.007 520.785,501.595 520.855,504.5 C 520.88,505.56 520.712,506.823 520.716,507.68 C 523.181,508.003 529.147,507.933 532.327,508.095 C 534.819,508.221 537.165,508.233 539.791,508.647 C 539.791,510.168 539.723,512.335 539.791,513.903 C 539.852,515.291 540.297,517.059 540.205,518.051 C 540.143,518.728 539.917,519.811 539.237,519.848 C 533.801,519.871 517.952,520.332 508.415,519.848 C 507.591,516.137 508.507,512.681 508.552,510.307 C 508.583,508.74 508.685,507.173 508.691,505.605 C 508.715,499.428 508.737,479.655 508.691,473.248 C 508.4,470.388 508.503,468.515 508.415,467.163 Z "></path><path id="dp_path013" fill="white" fill-rule="evenodd" stroke="none" stroke-width="0" d="M 325.287,527.992 L 338.22,528.249 C 338.536,537.327 338.823,545.375 338.395,553.463 L 338.064,572.731 C 338.079,575.184 338.635,577.551 338.395,581.395 C 337.929,581.411 336.472,581.803 334.893,581.772 C 333.4,581.744 328.06,581.395 325.333,581.395 C 325.333,580.428 325.737,579.628 325.643,578.805 C 324.651,570.225 325.649,561.583 325.287,552.941 C 325.051,547.295 324.955,538.777 325.333,535.615 C 325.612,533.287 325.287,530.364 325.287,527.992 Z "></path><path id="dp_path014" fill="white" fill-rule="evenodd" stroke="none" stroke-width="0" d="M 414.788,530.393 C 416.42,530.252 419.684,529.971 422.139,529.935 C 427.32,529.859 441.843,529.22 445.875,529.935 C 446.032,530.856 446.308,532.896 446.335,534.224 C 446.359,535.453 446.131,536.828 446.028,537.901 C 445.94,538.821 446.345,540.751 445.721,540.659 C 444.96,540.545 444.395,540.791 444.037,541.117 C 435.317,541.499 429.315,540.884 425.967,541.577 C 425.973,543.988 425.641,547.636 425.967,550.309 C 428.473,550.635 431.473,550.908 435.461,551.076 C 435.593,553.593 435.64,559.171 435.308,560.881 C 435.188,561.501 434.099,561.276 433.471,561.34 C 431.991,561.493 428.716,561.767 426.427,561.8 C 426.569,564.435 425.855,568.443 426.273,571.605 C 429.545,571.495 433.591,572.033 436.993,572.219 C 440.051,572.385 443.895,572.077 446.181,572.219 C 446.705,574.207 446.295,577.439 446.181,579.112 C 446.108,580.184 446.02,581.6 445.5,582.263 C 442.893,582.211 439.216,582.321 436.075,582.329 C 431.415,582.34 420.915,582.432 417.545,582.329 C 416.947,582.311 416.32,581.819 415.86,581.717 C 415.511,581.639 414.803,582.073 414.788,581.717 C 414.532,575.308 414.38,551.127 414.329,543.263 C 414.311,540.352 414.405,536.675 414.483,534.531 C 414.532,533.149 414.703,531.312 414.788,530.393 Z "></path><path id="dp_path015" fill="white" fill-rule="evenodd" stroke="none" stroke-width="0" d="M 288.757,529.883 C 293.435,529.084 297.639,528.983 301.323,529.171 C 304.557,529.336 308.436,529.108 310.863,531.013 C 317.952,536.581 320.185,545.728 320.129,553.807 C 320.103,557.705 320.265,562.159 319.407,565.701 C 318.593,569.057 316.619,572.372 314.976,575.063 C 313.468,577.535 310.761,581.677 309.551,581.847 C 303.565,582.237 293.928,582.384 290.565,582.085 C 289.824,582.237 290.04,580.316 289.445,579.844 C 289.108,574.5 288.663,558.349 288.548,550.023 C 288.456,543.309 288.656,534.359 288.757,529.883 Z M 299.467,545.383 C 299.145,551.095 299.416,561.668 299.527,565.948 C 302.48,566.248 304.317,566.367 305.427,566.008 C 310.281,562.865 310.427,557.577 310.109,554.205 C 309.781,550.731 307.859,547.248 306.035,545.687 C 303.64,545.121 301.541,545.344 299.467,545.383 Z "></path><path id="dp_path016" fill="white" fill-rule="evenodd" stroke="none" stroke-width="0" d="M 358.431,570.915 C 357.072,570.921 355.044,570.639 353.635,570.34 C 353.495,567.131 353.709,564.283 353.756,561.445 C 354.007,561.104 354.507,560.409 355.073,560.368 C 357.608,560.528 358.793,560.291 360.339,560.967 C 362.205,561.784 363.852,564.309 363.716,565.871 C 363.437,569.099 362.733,569.753 361.776,570.172 C 360.62,570.679 359.66,570.889 358.561,570.912 C 358.519,570.913 358.475,570.913 358.431,570.915 Z M 353.864,549.827 C 353.731,546.751 353.933,543.377 353.979,540.659 C 354.219,540.331 354.697,539.665 355.239,539.627 C 357.664,539.78 358.741,539.708 360.279,540.2 C 362.723,540.983 363.845,542.828 363.716,544.325 C 363.449,547.42 362.571,548.623 361.653,549.024 C 360.548,549.509 359.419,550.047 358.217,550.171 C 356.919,550.304 355.257,550.121 353.864,549.827 Z M 343.668,581.571 C 349.989,581.841 356.676,581.924 363.944,581.571 C 367.629,580.215 373.337,580.081 375.4,569.308 C 376.184,565.212 373.471,559.987 370.36,557.389 C 369.449,556.631 368.849,555.933 370.245,553.837 C 372.016,551.18 373.664,546.063 373.567,542.033 C 373.489,538.824 371.167,530.176 362.913,528.396 C 358.569,527.459 352.64,527.304 349.511,527.823 C 347.709,528.121 345.815,528.909 343.899,529.084 C 343.708,535.864 343.707,553.225 343.211,563.464 C 343.184,569.501 343.621,577.597 343.668,581.571 Z "></path><path id="dp_path017" fill="white" fill-rule="evenodd" stroke="none" stroke-width="0" d="M 379.075,529.224 C 379.545,528.932 380.487,528.348 381.285,528.256 C 382.899,528.072 387.207,527.979 388.751,528.117 C 389.428,528.179 390.485,528.408 390.547,529.085 C 390.916,533.12 390.8,546.071 390.961,552.317 C 391.084,557.067 391.445,563.656 391.515,566.56 C 391.54,567.621 391.372,568.884 391.376,569.74 C 393.841,570.063 399.807,569.995 402.987,570.156 C 405.479,570.283 407.825,570.293 410.451,570.708 C 410.451,572.229 410.383,574.396 410.451,575.963 C 410.512,577.351 410.957,579.12 410.865,580.111 C 410.803,580.788 410.577,581.871 409.897,581.909 C 404.461,581.932 388.612,582.393 379.075,581.909 C 378.251,578.199 379.167,574.741 379.212,572.368 C 379.243,570.8 379.345,569.233 379.351,567.665 C 379.375,561.489 379.397,541.716 379.351,535.308 C 379.06,532.448 379.163,530.576 379.075,529.224 Z "></path><path id="dp_path018" fill="white" fill-rule="evenodd" stroke="none" stroke-width="0" d="M 516.176,643.629 C 519.011,643.779 524.68,644.079 526.569,644.033 C 526.957,644.025 527.143,643.463 527.516,643.359 C 527.921,643.245 528.799,643.812 529,643.359 C 529.271,642.751 529.167,640.928 529.135,639.712 C 529.091,638.047 528.731,635.485 528.731,633.365 C 528.731,630.935 528.28,626.771 529.135,625.127 C 530.935,626.86 537.009,637.799 539.529,643.764 C 542.735,644.445 549.496,644.191 551.544,643.899 C 552.173,643.808 552.107,642.572 551.813,642.008 C 547.743,634.176 541.328,625.915 539.259,622.427 C 539.028,622.036 539.015,621.32 539.395,621.075 C 540.407,620.423 543.763,619.985 545.335,618.509 C 549.676,614.435 550.599,610.136 550.869,606.355 C 551.136,602.619 549.203,598.523 546.953,595.821 C 544.704,593.121 541.035,590.741 537.369,590.149 C 532.352,589.339 520.384,590.623 516.851,590.96 C 516.389,591.004 516.176,591.712 516.176,592.175 C 516.176,597.668 516.805,615.605 516.851,623.912 C 516.884,629.945 516.559,638.721 516.445,642.008 C 516.427,642.556 516.259,643.271 516.176,643.629 Z M 527.449,611.301 C 527.293,611.244 527.135,611.172 526.976,611.083 C 526.864,609.26 526.712,604.532 526.84,602.033 C 527.824,601.42 529.701,600.192 531.295,600.279 C 532.96,600.368 535.665,601.157 536.829,602.573 C 538.909,605.105 538.183,608.779 536.425,610.001 C 534.953,611.025 533.273,611.308 530.62,611.352 C 529.553,611.369 528.544,611.7 527.449,611.301 Z "></path><path id="dp_path019" fill="white" fill-rule="evenodd" stroke="none" stroke-width="0" d="M 453.428,633.985 C 452.593,633.897 451.552,633.379 450.809,633.271 C 450.669,630.063 450.613,626.748 450.66,623.912 C 450.911,623.569 451.72,623.304 452.285,623.264 C 454.82,623.424 456.503,622.921 458.049,623.597 C 459.915,624.413 461.255,626.652 461.288,628.22 C 461.343,630.829 460.833,633.063 457.907,633.747 C 456.883,633.987 453.472,633.985 453.428,633.985 Z M 451.239,612.257 C 451.105,608.689 451.051,606 451.095,603.299 C 451.335,602.972 451.839,602.1 452.381,602.06 C 454.807,602.213 456.033,602.044 457.572,602.536 C 460.016,603.32 461.273,605.567 461.145,607.064 C 460.879,610.159 459.728,611.475 458.811,611.876 C 457.705,612.361 456.375,612.573 455.121,612.637 C 453.859,612.7 452.631,612.553 451.239,612.257 Z M 440.572,644.037 C 451.184,645.035 458.051,644.96 461.907,644.421 C 465.591,643.065 471.037,643.424 473.1,632.651 C 473.884,628.555 470.829,622.241 467.717,619.644 C 466.808,618.884 466.751,618.261 468.147,616.165 C 469.916,613.507 471.433,609.711 471.004,603.823 C 470.771,600.621 469.54,592.643 459.811,590.577 C 455.463,589.653 450.756,589.659 446.415,590.289 C 444.875,590.513 443.105,590.879 440.76,591.433 C 440.569,598.215 441.112,615.885 440.616,626.123 C 440.591,632.16 440.525,640.064 440.572,644.037 Z "></path><path id="dp_path020" fill="white" fill-rule="evenodd" stroke="none" stroke-width="0" d="M 254.195,591.691 C 254.665,591.399 255.607,590.815 256.405,590.723 C 258.019,590.539 262.327,590.445 263.871,590.584 C 264.548,590.644 265.605,590.875 265.667,591.552 C 266.036,595.585 265.92,608.537 266.081,614.783 C 266.204,619.533 266.565,626.123 266.635,629.027 C 266.66,630.088 266.492,631.349 266.496,632.207 C 268.961,632.529 274.927,632.46 278.107,632.621 C 280.599,632.748 282.945,632.76 285.571,633.175 C 285.571,634.696 285.503,636.863 285.571,638.429 C 285.632,639.817 286.077,641.587 285.985,642.577 C 285.923,643.255 285.697,644.337 285.019,644.375 C 279.581,644.397 263.732,644.86 254.195,644.375 C 253.371,640.664 254.287,637.208 254.332,634.835 C 254.363,633.267 254.465,631.7 254.471,630.132 C 254.495,623.955 254.517,604.181 254.471,597.775 C 254.18,594.915 254.283,593.041 254.195,591.691 Z "></path><path id="dp_path021" fill="white" fill-rule="evenodd" stroke="none" stroke-width="0" d="M 304.787,601.411 C 307.1,601.139 308.475,601.813 309.624,602.717 C 310.772,603.623 311.284,605.353 311.681,606.836 C 312.093,608.368 311.956,610.585 312.092,611.912 C 312.192,612.877 312.48,613.824 312.504,614.793 C 312.556,616.869 312.504,622.395 312.401,624.368 C 312.361,625.141 311.989,625.865 311.888,626.633 C 311.733,627.8 312.059,630.001 311.476,631.369 C 310.892,632.737 309.971,634.293 308.388,634.839 C 306.743,634.992 302.535,635.341 300.671,634.015 C 298.097,632.076 298.625,631.311 298.509,630.957 C 298.033,629.505 297.951,627.948 297.789,626.427 C 297.617,624.815 297.583,622.499 297.48,621.28 C 297.419,620.555 297.171,619.845 297.171,619.117 C 297.171,617.775 296.88,614.625 297.48,613.219 C 297.54,612.167 297.527,611.101 297.687,610.057 C 297.857,608.931 297.992,607.573 298.509,606.455 C 299.041,605.305 299.831,604.001 300.876,603.16 C 301.923,602.32 303.792,601.528 304.787,601.411 Z M 303.552,590.775 C 300.841,591.079 298.903,591.084 294.289,593.659 C 291.563,595.18 290.289,599.527 289.865,602.924 C 289.059,609.376 289.127,625.985 289.453,632.368 C 289.608,635.419 290.379,639.059 291.82,641.221 C 293.208,643.304 295.679,644.7 298.097,645.339 C 301.031,645.544 304.936,645.848 308.183,645.545 C 314.425,644.431 319.28,641.823 320.12,634.941 C 320.953,634.041 321.191,632.665 321.252,631.44 C 321.509,626.311 321.715,609.34 321.663,604.159 C 321.651,602.867 321.484,601.523 320.943,600.349 C 320.205,598.753 319.021,596.012 317.239,594.585 C 315.267,593.007 313.653,591.428 309.108,590.879 C 307.993,590.528 304.347,590.796 303.552,590.775 Z "></path><path id="dp_path022" fill="white" fill-rule="evenodd" stroke="none" stroke-width="0" d="M 572.387,601.816 C 574.7,601.544 576.075,602.219 577.224,603.123 C 578.372,604.028 578.883,605.759 579.281,607.241 C 579.693,608.773 579.556,610.991 579.692,612.317 C 579.792,613.283 580.08,614.229 580.104,615.2 C 580.156,617.276 580.104,622.801 580.001,624.773 C 579.961,625.547 579.589,626.272 579.488,627.039 C 579.333,628.205 579.659,630.407 579.076,631.775 C 578.492,633.143 577.571,634.7 575.988,635.244 C 574.343,635.397 570.135,635.748 568.271,634.42 C 565.697,632.481 566.225,631.716 566.109,631.363 C 565.633,629.912 565.551,628.353 565.389,626.833 C 565.217,625.22 565.183,622.904 565.08,621.685 C 565.019,620.96 564.771,620.251 564.771,619.524 C 564.771,618.18 564.48,615.031 565.08,613.624 C 565.14,612.572 565.127,611.508 565.285,610.464 C 565.457,609.336 565.592,607.979 566.109,606.86 C 566.641,605.711 567.431,604.407 568.476,603.567 C 569.523,602.725 571.391,601.933 572.387,601.816 Z M 571.151,591.181 C 568.441,591.484 566.503,591.489 561.889,594.064 C 559.161,595.585 557.889,599.932 557.465,603.329 C 556.659,609.781 556.727,626.391 557.053,632.773 C 557.208,635.824 557.979,639.465 559.42,641.627 C 560.808,643.709 563.279,645.105 565.697,645.744 C 568.631,645.949 572.536,646.255 575.783,645.951 C 582.025,644.836 586.88,642.228 587.72,635.347 C 588.553,634.447 588.791,633.071 588.852,631.847 C 589.109,626.716 589.315,609.747 589.263,604.565 C 589.249,603.272 589.084,601.928 588.543,600.755 C 587.805,599.16 586.621,596.417 584.839,594.991 C 582.867,593.412 581.253,591.833 576.708,591.284 C 575.593,590.933 571.945,591.201 571.151,591.181 Z "></path><path id="dp_path023" fill="white" fill-rule="evenodd" stroke="none" stroke-width="0" d="M 493.323,601.005 C 495.636,600.732 497.011,601.408 498.16,602.312 C 499.309,603.216 499.82,604.948 500.217,606.429 C 500.629,607.963 500.492,610.18 500.629,611.505 C 500.729,612.471 501.016,613.417 501.041,614.388 C 501.093,616.464 501.041,621.989 500.937,623.963 C 500.897,624.736 500.525,625.46 500.424,626.228 C 500.269,627.395 500.595,629.596 500.012,630.964 C 499.429,632.332 498.508,633.888 496.925,634.432 C 495.279,634.587 491.072,634.936 489.207,633.609 C 486.633,631.671 487.161,630.905 487.045,630.552 C 486.569,629.1 486.487,627.541 486.325,626.021 C 486.155,624.409 486.12,622.092 486.016,620.875 C 485.955,620.149 485.708,619.44 485.708,618.712 C 485.708,617.369 485.416,614.22 486.016,612.813 C 486.076,611.76 486.064,610.696 486.223,609.652 C 486.395,608.525 486.528,607.167 487.045,606.049 C 487.577,604.9 488.367,603.595 489.412,602.755 C 490.459,601.915 492.328,601.121 493.323,601.005 Z M 492.088,590.369 C 489.377,590.673 487.44,590.679 482.827,593.252 C 480.099,594.775 478.825,599.121 478.401,602.517 C 477.595,608.969 477.663,625.58 477.989,631.963 C 478.145,635.013 478.915,638.653 480.356,640.816 C 481.744,642.897 484.215,644.295 486.633,644.933 C 489.567,645.139 493.472,645.443 496.719,645.14 C 502.961,644.025 507.816,641.416 508.656,634.536 C 509.489,633.636 509.727,632.26 509.788,631.035 C 510.045,625.905 510.251,608.935 510.199,603.753 C 510.187,602.461 510.021,601.117 509.479,599.944 C 508.743,598.348 507.559,595.607 505.775,594.179 C 503.803,592.6 502.189,591.021 497.645,590.472 C 496.529,590.123 492.883,590.389 492.088,590.369 Z "></path><path id="dp_path024" fill="white" fill-rule="evenodd" stroke="none" stroke-width="0" d="M 326.355,592.243 C 331.121,592.348 335.083,592.275 337.212,592.957 C 337.451,598.079 337.116,616.157 337.212,621.255 C 337.227,622.04 337.735,622.757 337.784,623.541 C 337.88,625.091 337.743,627.911 337.784,630.545 C 338.555,632.328 339.689,634.253 342.404,634.235 C 345.677,634.212 346.704,633.176 347.497,631.403 C 347.58,628.845 347.497,624.519 347.64,622.541 C 347.715,621.515 348.34,620.568 348.355,619.54 C 348.427,614.633 348.164,597.649 348.069,593.1 C 348.433,592.952 349.7,593.391 350.356,593.1 C 351.299,592.683 352.905,592.433 354.212,592.385 C 355.521,592.337 357.307,592.648 358.212,592.815 C 358.717,592.908 359.617,592.873 359.641,593.385 C 359.885,598.616 359.801,618.848 359.676,624.196 C 359.664,624.696 358.943,624.976 358.885,625.473 C 358.713,626.964 359.087,630.675 358.643,633.14 C 358.197,635.605 357.781,638.305 356.212,640.263 C 354.593,642.284 351.741,644.397 348.927,645.265 C 346.069,646.147 341.76,645.86 339.069,645.551 C 336.869,645.297 334.537,644.76 332.784,643.408 C 330.695,641.796 327.517,639.613 326.531,635.877 C 326.463,635.237 326.813,635.063 326.497,633.403 C 326.415,625.716 326.347,603.437 326.355,592.243 Z "></path><path id="dp_path025" fill="white" fill-rule="evenodd" stroke="none" stroke-width="0" d="M 594.524,592.432 C 599.291,592.537 603.252,592.464 605.381,593.147 C 605.62,598.268 605.285,616.347 605.381,621.444 C 605.396,622.229 605.904,622.947 605.953,623.731 C 606.049,625.279 605.912,628.1 605.953,630.735 C 606.724,632.516 607.859,634.443 610.573,634.424 C 613.847,634.401 614.873,633.365 615.667,631.592 C 615.749,629.035 615.667,624.707 615.809,622.731 C 615.884,621.704 616.509,620.757 616.524,619.728 C 616.596,614.823 616.333,597.839 616.239,593.289 C 616.601,593.141 617.869,593.58 618.524,593.289 C 619.468,592.872 621.075,592.623 622.381,592.575 C 623.691,592.527 625.476,592.836 626.381,593.004 C 626.885,593.097 627.787,593.063 627.811,593.575 C 628.055,598.805 627.971,619.036 627.845,624.384 C 627.833,624.885 627.112,625.165 627.055,625.663 C 626.883,627.153 627.256,630.863 626.811,633.328 C 626.367,635.793 625.951,638.495 624.381,640.452 C 622.763,642.473 619.911,644.587 617.096,645.455 C 614.239,646.335 609.929,646.049 607.239,645.74 C 605.039,645.487 602.707,644.949 600.953,643.596 C 598.863,641.984 595.687,639.803 594.699,636.067 C 594.632,635.427 594.983,635.252 594.667,633.592 C 594.583,625.905 594.516,603.627 594.524,592.432 Z "></path><path id="dp_path026" fill="white" fill-rule="evenodd" stroke="none" stroke-width="0" d="M 387.423,607.94 C 387.104,606.76 386.467,604.401 385.512,603.312 C 384.572,602.241 383.115,601.432 381.691,601.401 C 380.199,601.368 377.617,602.055 376.561,603.111 C 375.505,604.167 375.556,605.324 375.355,607.739 C 375.395,608.963 375.535,610.109 374.852,611.461 C 374.92,615.268 375.153,626.736 375.757,630.576 C 376.004,632.147 377.08,633.912 378.472,634.5 C 379.864,635.087 382.679,634.633 384.104,634.097 C 385.369,633.621 386.529,632.54 387.02,631.28 C 387.523,629.989 387.388,627.911 387.12,626.351 C 385.444,626.1 382.897,626.501 381.188,626.149 C 380.887,623.887 381.205,619.795 381.087,618.201 C 381.151,617.681 381.771,617.216 382.293,617.196 C 384.908,617.095 393.389,617.197 396.775,617.599 C 397.647,621.019 397.211,630.945 397.177,634.701 C 397.059,636.607 396.583,638.663 395.367,640.135 C 394.009,641.777 392.585,642.8 389.032,644.56 C 388.061,645.04 386.892,645.479 385.813,645.567 C 383.551,645.751 377.752,645.684 374.752,645.465 C 372.072,644.799 369.957,642.833 368.516,641.14 C 367.152,639.537 366.603,637.349 366.103,635.304 C 365.551,633.041 365.432,629.117 365.199,627.559 C 365.115,627.003 364.697,626.511 364.696,625.948 C 364.679,622.143 364.763,609.465 365.097,604.72 C 365.272,602.253 365.483,599.556 366.707,597.477 C 367.931,595.397 370.679,593.352 372.439,592.245 C 373.857,591.353 375.6,591.021 377.265,590.837 C 379.243,590.619 382.008,590.517 384.305,590.937 C 386.601,591.357 389.181,591.86 391.043,593.352 C 393.071,594.979 395.384,597.26 396.473,600.697 C 397.205,603.004 397.311,605.273 396.976,607.94 C 393.323,608.191 391.06,608.259 389.635,608.243 C 389.211,608.237 388.797,607.889 388.428,607.839 C 388.095,607.793 387.645,607.891 387.423,607.94 Z "></path><path id="dp_path027" fill="white" fill-rule="evenodd" stroke="none" stroke-width="0" d="M 655.021,608.548 C 654.703,607.368 654.067,605.011 653.112,603.92 C 652.172,602.849 650.715,602.041 649.291,602.009 C 647.799,601.976 645.217,602.663 644.161,603.72 C 643.105,604.776 643.156,605.932 642.955,608.347 C 642.995,609.571 643.135,610.717 642.452,612.069 C 642.52,615.876 642.753,627.344 643.357,631.184 C 643.604,632.756 644.68,634.521 646.072,635.108 C 647.464,635.696 650.279,635.243 651.704,634.705 C 652.969,634.229 654.129,633.148 654.62,631.888 C 655.123,630.597 654.988,628.519 654.72,626.959 C 653.044,626.708 650.497,627.111 648.788,626.759 C 648.487,624.495 648.805,620.403 648.687,618.811 C 648.751,618.291 649.371,617.824 649.893,617.804 C 652.508,617.704 660.989,617.805 664.375,618.207 C 665.247,621.627 664.811,631.553 664.777,635.309 C 664.657,637.215 664.181,639.271 662.967,640.743 C 661.609,642.387 660.185,643.408 656.632,645.168 C 655.661,645.649 654.492,646.087 653.413,646.175 C 651.151,646.359 645.352,646.292 642.352,646.073 C 639.672,645.407 637.557,643.441 636.116,641.748 C 634.752,640.145 634.203,637.959 633.703,635.913 C 633.151,633.649 633.032,629.725 632.799,628.167 C 632.715,627.611 632.297,627.119 632.296,626.557 C 632.279,622.751 632.363,610.073 632.697,605.329 C 632.872,602.861 633.083,600.164 634.307,598.085 C 635.531,596.007 638.279,593.961 640.039,592.855 C 641.457,591.961 643.2,591.629 644.865,591.445 C 646.843,591.227 649.608,591.127 651.905,591.545 C 654.201,591.965 656.781,592.468 658.643,593.961 C 660.671,595.588 662.984,597.868 664.073,601.305 C 664.805,603.612 664.911,605.883 664.576,608.548 C 660.923,608.8 658.66,608.868 657.235,608.851 C 656.811,608.845 656.397,608.497 656.028,608.448 C 655.695,608.401 655.245,608.499 655.021,608.548 Z "></path><path id="dp_path028" fill="white" fill-rule="evenodd" stroke="none" stroke-width="0" d="M 402.513,591.052 C 403.756,591.119 406.239,591.251 407.18,591.16 C 407.569,591.123 407.767,590.548 408.156,590.509 C 408.88,590.437 410.743,590.6 411.52,590.727 C 411.984,590.801 412.612,590.848 412.823,591.269 C 413.04,591.703 412.768,592.771 412.823,593.332 C 412.865,593.777 413.136,594.187 413.148,594.635 C 413.203,596.699 413.04,603.737 413.148,605.709 C 413.167,606.043 413.764,606.137 413.799,606.469 C 413.891,607.337 413.509,610.033 413.691,610.92 C 413.789,611.403 414.397,611.719 414.885,611.789 C 415.897,611.935 418.773,611.897 419.768,611.789 C 420.188,611.744 420.437,611.209 420.853,611.137 C 421.379,611.048 422.836,611.931 422.916,611.247 C 423.296,607.971 422.969,594.907 423.133,591.487 C 423.149,591.129 423.595,590.925 423.892,590.727 C 424.217,590.509 424.825,590.184 425.087,590.184 C 426.715,590.184 429.752,590.148 433.551,590.401 C 433.984,593.477 433.857,601.801 433.984,604.297 C 434.004,604.675 434.3,605.005 434.311,605.383 C 434.383,607.952 434.347,617.053 434.419,619.715 C 434.435,620.267 434.721,620.789 434.744,621.343 C 434.853,623.895 434.925,632.399 435.071,635.023 C 435.109,635.732 435.572,636.376 435.613,637.085 C 435.704,638.677 435.576,642.152 435.613,644.576 C 432.611,644.613 426.533,644.867 424.76,644.468 C 424.016,644.3 425.104,642.749 424.977,642.188 C 424.871,641.713 424.019,641.589 424,641.103 C 423.892,638.316 424.381,628.183 424.327,625.468 C 424.32,625.161 423.785,625.104 423.676,624.817 C 423.531,624.437 423.928,623.441 423.459,623.188 C 422.988,622.936 421.54,623.369 420.853,623.297 C 420.319,623.241 419.84,622.772 419.335,622.755 C 418.828,622.737 418.339,623.131 417.815,623.188 C 417.001,623.28 415.623,623.169 414.451,623.297 C 414.196,626.555 414.413,639.239 414.341,642.731 C 414.331,643.249 414.528,644.172 414.016,644.251 C 411.701,644.415 406.04,644.396 403.707,644.36 C 403.219,641.393 403.4,637.301 403.273,635.565 C 403.232,635.013 402.955,634.491 402.947,633.937 C 402.875,628.544 402.948,609.037 402.839,603.212 C 402.812,601.788 402.333,600.4 402.296,598.977 C 402.241,596.951 402.423,593.019 402.513,591.052 Z "></path><path id="dp_path029" fill="white" fill-rule="evenodd" stroke="none" stroke-width="0" d="M 670.6,592.513 C 671.841,592.579 674.325,592.712 675.267,592.621 C 675.656,592.584 675.853,592.008 676.243,591.969 C 676.965,591.897 678.829,592.06 679.607,592.187 C 680.071,592.263 680.699,592.308 680.909,592.729 C 681.127,593.164 680.855,594.231 680.909,594.792 C 680.952,595.237 681.223,595.648 681.235,596.095 C 681.289,598.159 681.125,605.197 681.235,607.169 C 681.253,607.503 681.851,607.597 681.885,607.929 C 681.976,608.797 681.596,611.493 681.777,612.38 C 681.875,612.863 682.484,613.18 682.972,613.249 C 683.984,613.395 686.86,613.357 687.855,613.249 C 688.275,613.204 688.524,612.669 688.94,612.597 C 689.464,612.508 690.923,613.391 691.001,612.707 C 691.383,609.432 691.056,596.367 691.219,592.947 C 691.236,592.589 691.681,592.385 691.979,592.187 C 692.304,591.969 692.912,591.644 693.173,591.644 C 694.801,591.644 697.837,591.608 701.637,591.861 C 702.071,594.937 701.944,603.261 702.071,605.759 C 702.091,606.135 702.387,606.465 702.397,606.844 C 702.469,609.413 702.433,618.515 702.505,621.175 C 702.521,621.728 702.807,622.249 702.831,622.803 C 702.94,625.355 703.012,633.859 703.157,636.483 C 703.196,637.192 703.659,637.836 703.699,638.545 C 703.791,640.139 703.663,643.612 703.699,646.037 C 700.697,646.073 694.62,646.327 692.847,645.928 C 692.103,645.761 693.191,644.209 693.064,643.648 C 692.957,643.173 692.105,643.049 692.087,642.563 C 691.979,639.776 692.467,629.643 692.413,626.928 C 692.407,626.621 691.871,626.564 691.761,626.277 C 691.617,625.897 692.015,624.901 691.544,624.649 C 691.075,624.396 689.627,624.829 688.94,624.757 C 688.405,624.701 687.927,624.233 687.421,624.215 C 686.915,624.197 686.425,624.591 685.901,624.649 C 685.087,624.74 683.709,624.629 682.537,624.757 C 682.283,628.015 682.5,640.699 682.428,644.191 C 682.417,644.709 682.615,645.633 682.103,645.712 C 679.788,645.875 674.127,645.856 671.793,645.82 C 671.305,642.853 671.485,638.763 671.36,637.025 C 671.319,636.473 671.04,635.951 671.033,635.397 C 670.961,630.005 671.035,610.499 670.925,604.672 C 670.899,603.249 670.42,601.86 670.383,600.437 C 670.328,598.412 670.509,594.479 670.6,592.513 Z "></path><path id="dp_path030" fill="white" fill-rule="evenodd" stroke="none" stroke-width="0" d="M 252.607,529.988 C 254.239,529.847 257.503,529.565 259.957,529.529 C 265.137,529.452 279.66,528.815 283.693,529.529 C 283.851,530.451 284.127,532.489 284.153,533.817 C 284.177,535.048 283.948,536.423 283.847,537.496 C 283.759,538.416 284.164,540.345 283.54,540.253 C 282.779,540.14 282.212,540.385 281.856,540.712 C 273.135,541.092 267.132,540.479 263.785,541.172 C 263.792,543.583 263.46,547.231 263.785,549.904 C 266.291,550.229 269.291,550.503 273.28,550.671 C 273.412,553.188 273.459,558.765 273.127,560.476 C 273.007,561.096 271.917,560.869 271.289,560.935 C 269.809,561.088 266.535,561.361 264.245,561.395 C 264.388,564.029 263.672,568.037 264.092,571.2 C 267.363,571.089 271.409,571.627 274.811,571.813 C 277.869,571.98 281.713,571.672 284,571.813 C 284.524,573.8 284.113,577.032 284,578.707 C 283.927,579.779 283.839,581.195 283.319,581.857 C 280.711,581.805 277.035,581.916 273.892,581.924 C 269.233,581.935 258.732,582.025 255.363,581.924 C 254.765,581.905 254.137,581.413 253.679,581.311 C 253.329,581.233 252.62,581.668 252.607,581.311 C 252.351,574.903 252.199,550.721 252.147,542.857 C 252.128,539.947 252.224,536.269 252.3,534.124 C 252.349,532.743 252.521,530.907 252.607,529.988 Z "></path></g></svg>